<?xml version="1.0" standalone="no"?>
<!DOCTYPE svg PUBLIC "-//W3C//DTD SVG 20010904//EN"
 "http://www.w3.org/TR/2001/REC-SVG-20010904/DTD/svg10.dtd">
<svg version="1.0" xmlns="http://www.w3.org/2000/svg"
 width="220.000000pt" height="220.000000pt" viewBox="0 0 220.000000 220.000000"
 preserveAspectRatio="xMidYMid meet">
<metadata>
Created by potrace 1.11, written by Peter Selinger 2001-2013
</metadata>
<g transform="translate(0.000000,220.000000) scale(0.100000,-0.100000)"
fill="#000000" stroke="none">
<path d="M140 1100 l0 -960 960 0 960 0 0 960 0 960 -960 0 -960 0 0 -960z
m630 630 l0 -300 -299 0 -300 0 1 299 0 299 299 1 299 2 0 -301z m630 -1 l0
-299 -300 0 -300 0 1 292 c0 161 3 296 5 300 3 5 138 8 299 7 l294 -1 1 -299z
m626 -1 l2 -298 -299 0 -299 0 0 300 0 300 298 -2 297 -3 1 -297z m-1256 -629
l0 -299 -297 2 -298 3 -2 297 -1 297 299 0 299 0 0 -300z m627 3 l-2 -297
-297 -2 -298 -2 1 299 0 299 299 0 299 0 -2 -297z m630 -4 l1 -297 -299 -1
-299 0 0 299 0 300 298 -2 297 -2 2 -297z m-1257 -627 l0 -299 -294 -1 c-270
0 -295 1 -300 17 -3 9 -5 144 -5 300 l0 282 300 0 299 0 0 -299z m630 0 l0
-300 -297 2 -298 2 -2 298 -2 297 299 0 300 0 0 -299z m627 2 l-2 -298 -297
-2 -298 -1 0 299 0 299 299 0 300 0 -2 -297z"/>
<path d="M1016 1965 c-159 -61 -218 -263 -114 -390 93 -112 252 -129 359 -37
131 112 113 320 -35 407 -55 32 -153 42 -210 20z"/>
<path d="M1624 1327 c-127 -61 -182 -213 -120 -335 49 -98 140 -149 247 -139
239 21 311 335 107 461 -68 41 -163 47 -234 13z"/>
<path d="M365 698 c-60 -30 -95 -67 -121 -126 -42 -93 -23 -201 49 -274 49
-49 87 -68 151 -75 107 -11 201 41 249 139 32 63 36 119 16 189 -17 58 -99
140 -155 157 -63 18 -143 14 -189 -10z"/>
<path d="M1070 720 c-124 -16 -220 -123 -220 -246 0 -94 46 -173 128 -221 89
-52 219 -36 299 38 68 64 92 192 53 276 -50 108 -150 166 -260 153z"/>
<path d="M1718 725 c-2 -2 -17 -5 -34 -8 -83 -13 -169 -89 -193 -169 -60 -197
124 -378 318 -313 204 68 229 358 38 456 -34 18 -122 40 -129 34z"/>
</g>
</svg>
